<svg version="1.2" viewBox="0 0 1254 1254" width="256" height="256" xmlns="http://www.w3.org/2000/svg"><path fill="#fff" d="M0 0h1254v1254H0z"/><path d="m1252.5 79-.2.1c-21 5-42.5 9-63.1 15.6-5.5 4.6-6.9 12.6-9.2 19.3a194 194 0 0 0-24.5-10.7c-4.8-.6-72.4 16-74.5 18.1-2.1 1.8-7.5 19.2-8.7 19.6-2 0-18.8-11.3-25.8-11.3a769 769 0 0 0-70.5 17.1c-6.1 4.3-7.7 12.7-10.2 19.5-.6.3-5.9-2-12.2-5l-12-5.8c-11 2.5-26.9 6.5-42.6 10.5-20.9 5.3-29.1 7.8-30.8 9.4-3 2.7-8 19.6-9 20.9-1.5 1.5-18.7-11.1-27.7-12.1-7.2-.6-75 16.2-78 19.3s-7.5 20.5-8.7 21.1c-1.5.3-22.2-12.6-26.5-12.6-2.3 0-19.7 4.5-45.3 11a285 285 0 0 0-202.5-33.3c-75.4 15.7-137.3 62.4-179.3 125.8-29.3 7.5-33.7 9.3-33.2 11.8a127 127 0 0 1 30.5-8.5C280.7 331 277 346.2 269 358c-5.6-2-9.3-6.2-12.4-11.1a131 131 0 0 0-17.9-23.8 104 104 0 0 0-39.2-26.1c-13.2-4.4-25-1.7-23.2 12 1 7.9 10.4 31.6 8.3 33.5-1.8 1.6-34.3 8.3-39.5 11.7a11 11 0 0 0-4.7 6.8c-1.4 5.5-2.7 11.2-5.4 16-4.4-1.8-8.4-4.5-12.5-6.9-10.4-39.4-11-39.9-16.2-42.8-10.4-6-17.4 1.8-20.2 6a131 131 0 0 0-16.7 41.2C46.5 381 23.1 385.5.5 393q-.8 1-.2 1.7c.7.5 6.7-.7 13.5-2.5 80.6-20.2 43-21.6 57.9 38a124 124 0 0 0 8.2 22.3c-7.7 29.8-12.7 48-14.9 57.5l-4.3 17.8q-.8 0-7.6-4.3c-.1-50.8-.5-67.6-1.1-70.3-3.3-17.3-50.9-44-51.9-43v.1c0 8 40.7 22.3 47.8 42.7 1.7 22.2.8 44.7.6 67a1927 1927 0 0 0-48-32q-.5.3-.5 1.8c61.1 45.7 125.9 88 189.2 131l5.6 3.7c18 55 23.2 71.7 23.2 72.5s-2.3 2.7-5.2 4.2c-22 10.6-30.8 34.8-31.3 34.8-1.5 0-5.6-5-173.2-124.2-6.4-4.5-8.3-5.4-8.3-4.1 52 42.2 109.5 80 164 119.6 9.1 6.6 16.8 12.5 17.1 13.1.5.8-3.2 18 3.2 31.8 3.6 8.7 11.3 15.3 9.7 17.8-5.2 18.2 2.2 36.3 15.5 49.1 3.6 2.7 4.1 3.8 5.3 9.7a49 49 0 0 0 12.5 24.7c16.3 17.1 38.4 14.6 39.1 16.3 3.3 6.7-9.9 43 9.9 76.2 6 9.3 14 17.3 23.2 30.7 7.7 11.2 23.1 27 32.5 34.6 102.9 82.8 312 79 411.5 2.1 35.1-27.1 57.8-70 61.6-83.9 7.5-43.9-3.9-105.3-2.6-107.5 1.4-2.8 9.3 6.9 35.5 7.4 19.8 1.2 39-12.6 40.5-10.7-10 39.8-20 59.2-19.6 71.3 0 25.7 27.1 40.4 45.1 45.2 9.2 2.5 41.6 7.3 57.2-11.2 7.9-12 11-26.7 15.3-40.3a107 107 0 0 0 17-5.7c25.2-13 16.7-31.2 30.5-45a49 49 0 0 0 14-44.3c-1.1-5.7 4.1-9.8 6.9-14.5 1-2.1 15.4-32.1-7.9-56.7l-5.9-6 15.4-49.8c41.5-9.5 80.3-33.5 123-38.4 33.5-2 85.2 27 84.3 21-.2-1.2-51-22.6-74.3-24.1-37.8-1.3-119.8 36.8-130.2 36.8-.2-.4 0-3 .4-6.3 1.3-12.2-5.2-12.3-6.5-26.7-1-8 2-14.5 6.5-20.9 5.3-6 6.9-5 12.9-10.4 6.8-6.3 7.8-20.1 7.8-20.7-1.6-16.4-17-23.6-30.1-30.5 9.6-31.8 13-41.3 13.8-41.8 58.4-17.7 117.4-33.3 175.2-52.8 8.3-2.8 24.7-7.7 24.7-9.2 0-.9 0-3-.6-3-65.5 19-131.4 40.3-196.9 59.6 8.2-35 28-105 30.6-106.5 1.8-.9 164.2-47.8 165.7-47.8q1-.2 1.2-2-.2-1.8-1.5-2c-126.3 35.8-162.7 47.6-164.3 46.8 6.4-25.1 14.4-49.8 22-74.6 1.2-3.8 1.8-4.4 5.3-5.3 37.3-11.5 138.5-37.1 138.5-41.2q0-1.5-.7-1.7c-1.4 0-29.5 8.5-30.7 8-.7-1-10-22.6-13-25.8A258 258 0 0 0 1180 243c3-6.8 4.9-14.1 9-20.2 3.5-1.7 62.9-16.6 64.3-17.7.5-.3.7-1.3.5-2.2-.7-3-34.1 8.5-35.4 7.8 0-.1-7.3-14-11.1-16.5-8.6-5.4-25.3-14.3-25.3-15.7s6-16.8 7.6-18.5c2.6-3.4 64.4-15.1 64.4-19.8V138c-12.6 3.6-22 6.3-32 9-3.5-6.2-6.8-12.3-12-17.2-4.8-3.5-25.9-14.6-26.5-15.6-.3-.9 4-15 7.6-16.9s62.1-15.2 62.6-17.1q.2-1-1.2-1.1m-98 27.4c3.8.4 37 16.8 46.8 22.8 8.2 3.8 12 10.6 15.5 18.4-.7.4-25.3 5.7-28.8 8.2-1.5 1.2-4.1 5.6-10.5 20.9-8.4-4-16.7-8.4-25.7-10.7-12.8 1.7-25.2 5.9-37.8 9a128 128 0 0 0-8.3-15.1 283 283 0 0 0-27-16.9c-4.7-2.5 4.5-19.2 5.3-19.6 2-.8 66.4-17.5 70.5-17m-108.7 26.7c5.6-.3 43.6 21 45.5 22.1 10.7 6.2 10.8 6.4 18.2 20.7-9.6 2.8-19.3 4.3-28.1 9.3-1.2 1.3-4 7.1-10.4 23.8q-7.7-4.5-15.5-8.6a89 89 0 0 0-11-5.3c-12.6-1-26.4 5-34.2 6.3-3.2.6-3.4.4-7.3-6.9a33 33 0 0 0-7.8-10.3c-5-3.6-25.7-15.6-26-15.6a80 80 0 0 1 7.1-18.3c1.2-1 65.3-17.2 69.5-17.2m-106.5 27c3.9-.1 6.5.8 15.5 5.6 9.2 4.8 31.5 16.8 39.5 23.2a69 69 0 0 1 8.2 14c-17.8 6-31.7 8.3-35.2 10.6s-9 21-10.4 21.5h-.1c-1.8 0-19.5-11-25.5-11-5.3 0-33.3 8-34.5 7.4a34 34 0 0 1-4.2-7.2 63 63 0 0 0-5.5-9c-1.2-1.2-7.3-5.6-25.1-17.2 2.6-7 5-13.9 8.6-20.4.8-.4 15.9-5.2 32.9-9.5s33.1-7.9 35.8-8m212.7 10.3c6.7.7 49.6 23.4 54.6 28.9a49 49 0 0 1 7.4 12.2c-1 1.3-23.5 5.2-28.3 9.5-4.4 3.9-8.7 19.5-9.4 20-.5 0-19.5-9.8-22.5-10.6-2.7-.6-12.8 1.2-12.8 3.6 0 1.3 1 1.4 12 0 6.7 3.3 45.6 22.8 53.4 30.6 3.2 3.5 6.7 14.6 12.6 24.4-1.5.7-105.5 30.1-105.7 29.7 1.8-10.4 6.1-20 11.3-29 6.2-10.3 6.4-11 7.4-20.2q2-19 3.8-38.1c.6-7.4.4-9.4-.8-10.8a42 42 0 0 0-19-6.1c-5.3 1-1 5.1-15.6 15.6-12 7.8-19.5 20.7-26.1 33.2-2.1 5.4-4 9.8-4.3 9.8-2.9 0-18.6-13.1-28-13.1a567 567 0 0 0-44 12c-6.3-17.8-21.9-25.2-37-34 2.8-7.1 5.4-14.3 8.8-21.2.4-.4 15.6-4.6 33.7-9.3 14.3-2 29.3-11.8 43.8-7.1 11 5.5 21.5 11.8 32 18 4.2 2.5 8.2 4.6 8.7 4.6 7.6 0-13-12-13-12.3 0-.7 7.5-20.4 9.9-22.8a517 517 0 0 1 67.1-17.5m-322.7 16.7q10.1.7 40.7 21c13.3 8.7 13.6 8.9 17.9 16.6 2.3 4.2 3.8 8 3.5 8.4-.5.4-7.4 2.4-15.4 4.5-10.8 2.9-15 4.5-16.5 6.2-3.4 4-8.6 22.9-10.7 22.4-2.5-.7-21.4-13.2-27.8-13.2-3.4 0-33.8 8.3-34.5 8.6-.8 0-3.6-4.4-11-18l-27.3-18.1c2.1-6.6 4.3-13.1 7.5-19.3 2.8-3.4 64.4-17.7 73.6-19.1M539 188c36.7 1.1 78.7 9.7 121.5 33.3a283 283 0 0 1 80.7 67.8c29.3 36.6 45 74.2 54.7 113.5a277 277 0 0 1-48.2 228c-23.8 32.3-39.2 47.3-58.2 62.3-39.5 29.8-83.6 41.9-130.5 46.3-62.9 6-123.2-10.8-177.7-41.8-.5-.3-33-20.3-57.4-46.3a323 323 0 0 1-44.4-65.5 243 243 0 0 1-27.3-119 71 71 0 0 1 4.3-20.5c5.4-16.9 6.1-14.4 9.6-28.5 8.8-33.6-2.3-32.4 5.5-52.7a274 274 0 0 1 208-172.3A286 286 0 0 1 539 188m180 27.8a272 272 0 0 1 48 27.1c6.5 5 10 12.7 13.7 19.9-1.7 3.4-35.8 3.3-38.8 19.2a338 338 0 0 0-63.9-57c13.6-2.8 27-9.2 41-9.3m396.9 5.4c5.1 1.4 9.6 2.4 13.6 6.1-3.2 13.9-6.2 46.9-11.6 54.8a136 136 0 0 1-9.7 12.5 47 47 0 0 1-10.2-4c-1-1.5-1.7-16.6-3-21.5 2.8-16.5 13.4-32.7 20.9-47.9M932 228.4c5.6.5 35 18 42.9 23 11.1 7 11.4 7.2 18.6 21.4-8.4 2.6-17.5 3.4-24.6 8.9-4.6 6.5-7 14.2-10 21.5-1.6 3.4-5.4-.7-7.9-1.6-3.6-1.5-13.8-9.6-20.2-9.6-19 3.1-42 11-43.5 11-9-23.2-19.6-24.7-34.3-34q4.6-11.8 9.8-23.3c.4-.4 7.7-2.5 16.2-4.7 17.8-3.5 34.9-11.2 53-12.6m-337 5.8a102 102 0 0 0-106.6 89.3c-1 6.5-6 45.3 11.9 80a445 445 0 0 1 34.3 97.5 380 380 0 0 1 4 107c-1.8 20.4-4 42.5 5.1 61.5 3.2 6.4 18.4 31 62.3 29.2 34-1.6 64.3-16.2 90.5-36.7a213 213 0 0 0 82-171c-1.2-79.1-38.3-156-41-161.5a168 168 0 0 0-101-88.4c-5.2-1.7-21.4-6.5-41.5-7m508 .4c.3.2-2.9 7-14.7 29.9a179 179 0 0 1-9.3 56.5c-11.1 36.6-27.2 91.3-27.9 92.2-80.5 24.8-161.7 47.7-242.6 71.4-.6-24-.5-48-5-71.6 44.3-16.7 109.6-31.7 239-69.5 12.7-3.6 23.4-7.2 23.8-7.8 1.4-2.4.4-2.7-1.3-2.7a589 589 0 0 0-31.7 8.6 784 784 0 0 1-31.6 8.8c-3.1.2-11.2-22.1-14.1-25.4-.8-.8-17.7-12.5-25.4-17.5l1.3-3.5c2.6-6.8 5-13.6 8.6-19.8 5.3-4.1 13-4.5 19.4-6.3 16.9-4.1 33.4-10.2 50.5-13.2 6.3 0 28.6 14.3 31.5 14.3 2.1 0 4.4-29.5 29.5-44.4m-510.8 4.7a134 134 0 0 1 44.8 7.4c16 5.3 66.4 25.7 93.9 81.3a394 394 0 0 1 41.7 156.5A210 210 0 0 1 689.8 661c-26.7 19.2-57.7 33.6-91.3 32.6-19.4-1-42-7.3-51.2-29.7-3.8-8.8-6.9-19-2.3-67a360 360 0 0 0-7.5-108.5c-5.2-21-16.2-53.2-31.4-85-12-25-15.4-49-13.1-71.5 1.2-13.8 7.3-51.7 38.5-73.5 20.6-14.2 42-19 60.7-19.2m3.5 15.3q-14.3 0-26.2 3.3c-31.2 10.3-55.3 31-65.1 63.1a116 116 0 0 0 10.4 80.5c10.2 21.2 20.3 41.6 25.1 65A363 363 0 0 1 552.1 605c-2.3 18.9-4.3 39.2 4.6 56.7 7.2 11.7 21 23.3 47 23.3 34.1 0 66.3-19 84.3-33.5a193 193 0 0 0 44.7-52.5c23.5-41 28.7-85 24.8-126a396 396 0 0 0-37.9-133.5c-31-62.8-83-85-124-85m226.3 3c9.9 3 23.4 11.2 42.3 23.7 10.4 7 10.8 7.4 18.7 22.7-9.6 3.3-20.7 3.6-29 9.7-5 5.4-9.7 23.7-10.7 24.3-3.7-1-16.5-11.6-28-14-1.5 0-10.8 2.1-38.4 9.5a249 249 0 0 0-31.7-48c1.3-3.3 1.3-5.1 3.2-8 2.5-2 69.7-20.7 73.6-19.9m271.5 36.8c1.4.7 18 5.6 18.5 6.8-26.4 91.8-54 183.3-81.5 274.8-7.7.4-14.5-2.3-20.7-6.5 30-96.2 79.5-267.4 83.7-275.1M930 296.1c.9 0 41.4 17 55.5 33.6 2.6 4 11 22.3 10.5 22.6-37.4 7.6-73.2 25.3-111 30.7 0-1.4-8.6-19.7-11.4-23.4-2.8-4-26-19.1-26.3-19.1s6.4-20 9.2-23.3a471 471 0 0 1 73.5-21.1m-741.5 3.2c7.6.1 17.5 4.6 17.8 5.3 15 5.2 35.5 24 47.5 46.4a97 97 0 0 1 9.3 52.5l-.6 2.6q-.2-.4.2-6.6c1.2-20-6.4-43.4-12.3-49.3-2-1.7-1.6 0-.5 1.3.8.8 5.4 12.2 7.7 25a90 90 0 0 1-13.7 65.7 99 99 0 0 1-95.4 40.3c-55.6-10.2-72.3-61.6-59-113 2.8-9.3 14.3-45 21.5-23.5 5.9 20 10.3 40.5 17 60.2 1.5 4.4 2.9 6.4 5.8 8.3 12.7 6.1 39.4 8.8 45.2 6.2 15-7.6 31.7-27.7 33.4-35.5.5-2.4-.6-7.5-4.4-20-2.8-9.2-7.7-24.8-11-34.7s-6-18.8-6-19.8c1.6-3.5 3.4-3 7-2.2 18.2 6.6 32.2 20.3 46 33 0-6-34-37.5-49.5-37.5-4.6 0-9.5 3-9.5 5.2 0 5.2 22.2 69.2 21.5 69.5-4.1-.7-5.6-3.1-7.1-6.8-4.5-18-16.3-50.5-19.3-65.9 0-5.1 3.7-6.7 8.4-6.7M815.3 328c1.5 0 39.4 19 55.8 35.2 4.7 6.1 8.5 15 10 21.1v.1c-.2.4-2.9 1.2-6.9 2.4-8.2 2.5-61.2 17.8-67.2 19.2-2.3.6-4.2.9-4.5.8l-2.4-10.3c-8.7-36.8-22-57.6-20.8-58.8a500 500 0 0 1 36-9.7m-716.5 1c3.6 0 9.1 3.8 9.2 4.5-11.8.5-17.1 19-20.8 29-12.6 36.3-10.5 99.1 45.6 120 14.3 5.3 11.7 2.7 17.5 6.5 9.9 4.1 25 23 30.5 36.5A6102 6102 0 0 1 249.5 735c-.7.5-14.5-1.5-14.5-3.3 0-.7-4.7-15.7-10.5-33.5-10.8-41.6-25.7-78.9-39.5-120.2a1082 1082 0 0 0-18.4-53c-1.6-3-3.7-6.8-4.7-8.3-1.2-5.2-8.3-12-16.6-19.4-9.8-7.6-21.9-11.7-32-18.9-37.4-20.8-44.7-62.2-39.8-102.4 6-24 16.7-47 25.3-47m86.6 17.1c1.4.4 9.6 28.6 9.6 31.6 0 4.1-8.5 12.6-26.5 29.5-47.7-6.4 26.9 3.8-35.5-4.7-2.8-8.6-6-17-8-25.8 0-3.2 11.3 5.8 12.8 4.7 2.9-2.9 3.5-24 11-26.1 3.5-.7 35.4-9.2 36.6-9.2m14.8 35 7.8 3.9c-7.7 14-27.6 29.9-29 30.2-1.1 0-1.2-.6-3.5-3.5-3.1-3.9 16.6-16.2 24.7-30.6m-65.6 28.1c10.8.1 22.9 1.9 33.9 3.3 1.1.3 1.3 2 5.2 5-3-.9-29.6-3-35.5-5.9-1.8-.9-3.4-2-3.6-2.4m127.1.3c.1.2-.3 2.7-.9 5.7-1.6 7.9-9.1 25.8-11.2 33.8a123 123 0 0 0-4.9 37.5c.7 46 52.8 176.7 60.9 215.2 1.3 6.7 4.2 17.8 6.4 24.5a100 100 0 0 0 6.4 15.8c3.2 5 12.6 34.2 16.8 44.5a71 71 0 0 0 4.3 9.2c2.9 4.3 6.2 1.1 6.5.8q1.4-1.5 2.2-1.6c2.2 7.2-.3 14.6-2.2 21.6 0 11.5 24.8 43.7 1.2 76.4a44 44 0 0 1-48.7 12c-10-3.8-17.4-14-17.5-14.7 3.5-2.2 8.8-3.4 13-5.2q5.8 5.7 13.1 8.8c8.5 2.5 22.8 2.4 31.3-9.3 13.6-16.1 5.8-36.7-.2-54.5-4.5-13.5-12.8-38.5-18.3-55.5-28-84.3-14.7-45-49.4-152.5-12-43.8-33.8-85.7-36-131.5 0-15.7.2-17.8 2.8-26.5 2.1-7 4.2-11.5 8-17 3.5-5.2 10.9-17.4 14.3-30.7 1.1-4 2-7 2.1-6.8m786.8 10.1c.2.2-18 64.8-31.1 105.6-80.7 24.3-161.2 49.9-242.4 72.8a306 306 0 0 0 27.5-75.5c1.3-6.6 2.9-16.8 4.8-33 58.2-16.8 239.6-71.5 241.2-69.9M83.3 458.3A108 108 0 0 0 120 488a77 77 0 0 1 26.8 18.6l-2.4 9.5c-13.3 53.2-13.1 59-14.2 59-.4 0-4.5-2.6-9.2-5.8q-28.1-19.6-56.7-38.6c6.8-24 10-49 19-72.3m151.3.8-.6 1.6a94 94 0 0 0-2.6 11.8c-4 48.7 18.2 97 32.7 143 18 57.1 36.8 114 55.4 171 6 29 29.7 60.3 19.4 90.5-9 17-31 16.6-40 7.5-1.3-1.5-1-2 3-6 9.9-6.4 11.3-26.8 1.5-37.1-3.8-4.2-3.9-4.4-2.3-6.6 8.6-12.4 5.8-38-14.2-45.8 6-11.3 6.5-26.4-3.4-38.5-7.5-8.9-18.1-12-28.9-15l-44.2-135.3c-18-59.5-29.8-91.8-47-107.2a34 34 0 0 1-7-5.1h8a104 104 0 0 0 70.2-28.8m426.9 9.3q.8 0 1.5.2c2.5.6 5.2 1.7 6.2 7 0 5.3-2 7.9-7.5 9.2-7.9.5-10.8-8.8-7-12.9 1-1.3 3.4-3.5 6.8-3.5M152 512.1c9.5-.6 20.5 45.9 23 53.4l14.1 42.5a45 45 0 0 1 2.3 8.7c-.5.5-36.2-24-45.5-30.4-9.8-6.9-11.4-8.3-11.1-10.4.2-2.4 10.2-45 14.8-62.6q1.2-1 2.4-1.2m519.3 1c6.7-.2 11.7.8 14.2 1.5a40 40 0 0 1 28.7 27.9 65 65 0 0 1-9.4 50.5c-4.4 6.6-24.4 33.6-55.3 31.7a41.4 41.4 0 0 1-40.1-31.7c-2-7.6-6.4-34 19.6-60a62 62 0 0 1 42.3-20m-2.7 8.9c-9.8.6-22.6 4.5-35.1 17.4-19.5 19.5-24.5 49-8.4 66.1a38 38 0 0 0 42.4 8.1c42.5-17.5 54.7-74.8 18.5-89.3-.7-.3-7.6-3-17.4-2.3m346.3 9.1c.3 0-.8 4.7-5.5 20.9-5.7-1.3-11.6-1.2-17.5-1.2a31 31 0 0 0-22.7 8.1c-2.5 2.3-3.9 5.2-8.5 20.6 9.8 27 9.3 35.5-11.2 50.2-8.1 5.8-8.5 6.3-23.1 52-31.4-7-47.2 19-48.8 31-.6 4.1-.9 4.3-5.9 5.9-23.7 7.4-36.8 26.2-54 24.4-18.3-2.6-44.7-18.3-61-31.6-2.6-2.3-35.4-40.2-33.6-42.6a442 442 0 0 0 48.3-64c80.9-25.4 161.9-50.9 243.5-73.7m-22.8 25c5.2 0 10.6.7 15.5 1.2 3.4 3.4-12.8 7.5-4.1 14.9 7.7 7.2 30 13.5 34.8 5.5-1.1-9 1.6-11 10.4-5.9 6.1 3.7 16 8.4 12.5 16.4-15.9 7.6-34.8 2-50.8-3.2-24-8.3-36.4-19.9-32.8-25 4.3-2.8 9.3-3.7 14.5-3.8m-20.4 7.4c8 14.3 23.5 21.2 38.2 26.8 39.3 13.1 54.4 2 55.6 2h.1v.2c-2.6 15.9-10 19.3-24.7 19.5-31.8 0-87.2-18.4-69.2-48.5M276.9 593a32 32 0 0 1 3.5 6c10.5 19.8 24.3 38 42 55.8-6.9 2.2-23 6.3-23 5.9l-14.5-43.2zm694.4.2c27 20.5 61.2 26 77.1 23.6-7.7 8.3-12.6 18.3-10.6 29.7 2 8.7 5.2 13.5 4.1 15.5-2.1 4.3-25.6 14-66-4.3-9.8-4.6-20.4-13.2-22.4-21.2-1.5-6.8 25-11.7 17.8-43.3m-23.1 43.3c5 13.5 19.8 22.2 28.2 26.1 27.7 14.4 59 11 65.5 4.9 2.2-1.9 2.6-2 2.7-.6-3.6 23.5-12.5 46.4-19.6 69.1-4 12.5-4 12.5-12.6 16.7 5.4-20 13.2-39.4 17.5-59.7 1.8-7.5-5.6-12.5-11.9-6.2-6 6-19.8 61.7-23.1 68.2-7.6 2.6-15.8 5-23.5 8-.2 0 20.3-65 21.2-73.5 1-8.9-5.8-18.1-16.1-6.9-3.1 4.5-71 225.3-76.5 243.9-3.2 12.9 10 16.7 15.9 10.8 14.4-31.2 25.4-79 28.7-85.5.4-.2 2 1.4 6 6.7-10.9 12-10.8 26.1-.5 39-3.5 12.9-8.1 25.5-11.2 38.5 0 .5 1.8 6.8 7.3 5.7 1.5-.4 3.6-1.7 4.7-2.9 1.7-1.8 3.8-10.1.3-4.6-1 1.5-3.5 3.5-4.7 4.4-7.8.5-.7-13 .8-18.1 2.5-8.2 4.8-16.2 5.6-20.5 3.3.8 5.6 3 7.5 5-1.5 8.4-6.2 16.7-6.4 25 3.3-.3 6.6-14.9 8.3-19.7 1.4-6 3.4-6 8.5-4.9-3.6 12.2-5.5 25.6-13.2 36.1-9.9 12.1-34 15.6-57.2 8.2-23.5-8-38.6-24.1-37.1-41.7 14.1-52.3 30.8-103.9 47.2-155.5l13.5-43c4-12.6 10-32.2 13.4-43.5 3.1-10 6-20.1 10.8-29.5m-625 22.6c5.4 3.3 25.8 20 22.8 21.9-3.2 1.7-11.7-11.3-27.8-8-3.6.7-6.3 2.1-12.1 7.5q-2.7-7.5-4.9-15c.2-.4 19.6-6.1 22-6.4m627.3.9c-.8 0-2.4 1-3.5 2.2a42 42 0 0 0-4.5 9.8c-1.3 4.1-3.1 10.2-3.9 13.5a47 47 0 0 0-1.6 8q0 1.3.2 1.4t1.2-.9c.8-.8 3.1-6.9 5.1-13.5s4.2-13.1 4.8-14.5c.7-1.4 1.9-2.5 2.7-2.5s1.9 1.1 2.4 2.5q.9 2.5-.3 8c-.7 3-2.7 9.8-4.4 15-1.7 5-3.6 9.2-4.2 9.5-.5 0-4.1 9-7.8 20l-8.7 26c-1 3.3-3.5 12.5-5.4 20.5l-5.1 21.5c-.9 3.9-4.7 18-8.6 31.5l-17.5 59c-5.8 19-11.1 36-11.9 37.7s-2.1 3.3-2.8 3.3c-.6.1-1.9-.7-2.7-1.6-1.1-1.2-1.3-2.9-.9-6.3.3-2.5 3.8-15 7.8-27.6l11.2-36 4.5-14.8q.3-1.6-1.1-1.7c-.8 0-2.1 1.7-2.9 3.7l-9.1 28.8-10 32.5c-1.4 4.1-2.9 9.5-3.4 12q-1 4.5-.1 8.2a9 9 0 0 0 3.5 5.3c1.4.8 3.4 1.3 4.5 1a7 7 0 0 0 3.4-2.8 364 364 0 0 0 9.6-29.2l13.5-44.5a852 852 0 0 0 17.3-61.5l6.7-28a115 115 0 0 1 4-14.5c.7-1.4 3.2-7.9 5.6-14.5s5.2-14 6.4-16.5 3.8-9.2 5.8-15 4.5-13.9 5.6-18c1.6-5.9 1.9-8.3 1.1-11.3-.6-2-1.9-4.2-3-4.7s-2.7-1-3.5-1m-232.3 15.1c.3 0 19.5 19.1 35.5 45.9 15 25 35.3 67.8 44.7 128 4.5 45.5 17 99-18.9 134.5a157 157 0 0 1-42 29.4c-84 42-262.5 64-386.5 6.6-7.4-3.2-21-10.2-34.5-19.3a149 149 0 0 1-35.1-34.2c-18.2-26-11-75-8.2-75 4.1 0 6.9 10.8 21.3 18.2 27.2 13.2 52-3.9 62-20.2 13.8-23 3.3-47.1-4.6-70.5a56 56 0 0 0 .8-31c0-2.6 10.2-30.3 1-56.5-1.2-3-1.2-4.2 0-8.5.9-3.1 1.3-8.4 1.1-14.5-.3-8.2-.8-10.4-3.3-15.7-2.7-5.6-2.9-6.4-1.5-7.8 15.3 1.7 81 74.2 213 60.1 73.6-6.6 118.2-37.4 136.2-52.8 6.6-5.2 12.4-11.4 19-16.7m-395.6 3.3c10.7.2 28 8.5 27 35.6-3.5 22-16 29.1-20.9 29.1-1.2 0-3.2-1-4.5-2.3-4.1-4.1-13.3-36-14.6-48.3a12 12 0 0 1 13-14m658.5 4.4c1.4-.2-1.1 7.2-1.4 8.5-13 49.3-22.6 74.2-22.6 84.6.4 2.2-.3 4-.7 6.1-4.1 11.5 3.1 21-8.7 39.5a32 32 0 0 0-5.3 20q.6 3-3.4 15.5c-3.3 10.3-22.3 71-24 75.3-1.6 5-9.1 4-10.8.4 19-80 74.8-248.9 75.6-248.9q.9-1 1.3-1m6.5.1c1.6-.1 2.1 6.4 1 12.4-.5 1.5-17.9 60.2-20.7 67-3.3 8.6-7.8 11.3-6 6 6.7-26 15-51.6 22.1-77.5 1.4-5.6 2.7-7.8 3.6-7.9m-72.4 3.6q4.5 0 9.1.5c1.1.9-7.8 24.6-19.8 67.4-5.8 19.4-12.8 39.9-18 57.9a68 68 0 0 1-19.5-68.8c0-3.8 6.6-18 .1-11-6.4 8-7.4 17.6-7.9 27.5-1.7 42 24.8 52.1 24.8 58.3-1 6-2.8 11.5-7.3 15.7-42 23.4-74.5 2.6-75.2.3-6.7-39.8-22.3-77.2-41-112.8 16.3 11.9 34 21.2 53.5 26.6 17.6 5 33-11 47.5-19 4.6-2.8 11.2-4.6 15.2-6.1 1 .7 3 14.7 10.2 21.5 3.5 3.5 3.7 2.2 6.1 0 0-2.6-22.3-23.1-1.3-47.8a33 33 0 0 1 23.5-10.2m108.8 1.6q1.8-.1 2.6 2.2c-3.5 18.7-10.6 36.7-16 55-1.5 6.5-3 8.9-8.9 10.2-2.3.4-2.7.2-2.3-1.2 8.2-20.7 9.8-44.6 20.9-64q2-2.1 3.7-2.2M220 704c4.7 7.8 6.6 17.7 8.8 26.7-1.3.5-14-10-15.4-5-.7 2.6 8.2 9.3 24.2 13.1 18.1 3.1 37.2 4.6 46.5 22.6 4.5 16.4-1.5 29.8-17.8 35.5-20.3 6-52 2.3-68.5-13a45.4 45.4 0 0 1-7.4-53.9 57 57 0 0 1 29.6-26m128 30.8c6.7 14 5.7 43.3-5.5 55.2-1.8-2-14.5-39.8-14.5-40.5 0-1 7.9 0 16.7-9.8 1.8-2 3.3-3.5 3.3-4.9m682.1 1.7a46.4 46.4 0 0 1 4.4 64.7c-17.2 17.2-53.8 20.2-67.9 7-10.3-9.6-4.8-24.3-3.6-27.1 10-19.7 34.5-18.1 53-23.9 8.6-3.8 14.6-7.6 13.5-17.4zm-831.4 55.7h.2c20.5 13.7 57.7 17.4 76.1 7.1 7-6.1 11.3-5.8 17.9-.2 14.5 15.3 3.6 34.7-1.9 38.9a48 48 0 0 1-8.5 4.7c-5.4 2.3-34.6 11.1-61-1.6-30.8-15.1-25.1-48.4-22.8-49m831.1 20.6c13-.3 3.6 33.2-19.3 44.3-17 8.2-42.9 8.3-54.9-2.2-13-11.1-7.4-32.7 6.6-39.3 6.6-2.6 26.7 16.5 61.8-1a14 14 0 0 1 5.8-1.8m-734.3 28.4c38.2 40.6-50.8 64.7-73.1 18.3-1.5-3.3-5.4-14-2.4-12.9l8 2.9c7.9 2.8 39.7 8.6 62-4.8zM954.8 862c19 9.2 38.7 6.3 58.1.3a45 45 0 0 1-22.9 32.3c-19.2 9-33.7 1.6-37.6-2.3s-10.4-14 2.4-30.3M774.4 995c-3.9 11.2-22.2 24.7-30.6 32.9-101.9 80.8-324.8 81-417.6-7.7-6.3-6-9.8-9.4-20.7-21.8l6.2 4.4c97.4 67.2 300.7 76.7 427.1 14.6 9.5-4.3 29.6-20.7 35.6-22.3" fill="#000101"/></svg>